<svg width="222" height="222" viewBox="0 0 222 222" fill="none" xmlns="http://www.w3.org/2000/svg">
<rect width="222" height="222" fill="#E0E1E4"/>
<path fill-rule="evenodd" clip-rule="evenodd" d="M141 154.934C154.883 145.487 164 129.558 164 111.5C164 82.5051 140.495 59 111.5 59C82.5051 59 59 82.5051 59 111.5C59 129.988 68.5569 146.245 83 155.598V152.667C83 142.542 91.1149 134.333 101.125 134.333H122.875C132.885 134.333 141 142.542 141 152.667V154.934ZM133.75 159.066V152.667C133.75 146.591 128.881 141.667 122.875 141.667H101.125C95.1189 141.667 90.25 146.591 90.25 152.667V159.522C96.7466 162.401 103.937 164 111.5 164C119.454 164 126.994 162.231 133.75 159.066ZM90.25 105C90.25 117.15 99.9878 127 112 127C124.012 127 133.75 117.15 133.75 105C133.75 92.8497 124.012 83 112 83C99.9878 83 90.25 92.8497 90.25 105ZM126.5 105C126.5 113.1 120.008 119.667 112 119.667C103.992 119.667 97.5 113.1 97.5 105C97.5 96.8998 103.992 90.3333 112 90.3333C120.008 90.3333 126.5 96.8998 126.5 105Z" fill="white"/>
</svg>
