<svg width="203" height="203" viewBox="0 0 203 203" fill="none" xmlns="http://www.w3.org/2000/svg">
<rect width="202.866" height="202.866" fill="#E0E1E4"/>
<path fill-rule="evenodd" clip-rule="evenodd" d="M129.861 139.406C141.4 130.754 148.866 116.965 148.866 101.433C148.866 75.2364 127.629 54 101.433 54C75.2364 54 54 75.2364 54 101.433C54 116.917 61.4196 130.669 72.8975 139.326C79.3631 132.392 89.697 127.902 101.342 127.902C113.031 127.902 123.4 132.427 129.861 139.406ZM119.074 92.438C119.074 82.6449 111.135 74.7061 101.342 74.7061C91.5486 74.7061 83.6098 82.6449 83.6098 92.438V103.077C83.6098 112.87 91.5486 120.809 101.342 120.809C111.135 120.809 119.074 112.87 119.074 103.077V92.438Z" fill="white"/>
<path d="M123.802 143.271C118.613 138.236 110.482 134.994 101.342 134.994C92.2395 134.994 84.1384 138.209 78.9469 143.208C85.6387 146.817 93.2965 148.866 101.433 148.866C109.522 148.866 117.138 146.841 123.802 143.271Z" fill="white"/>
</svg>
