<svg width="85" height="20" viewBox="0 0 85 20" fill="none" xmlns="http://www.w3.org/2000/svg">
<path d="M9.04712 19.3244V12.0867C9.04712 10.3135 8.10622 8.68502 6.26061 8.68502C4.45118 8.68502 3.36553 10.3135 3.36553 12.0867V19.3244H0V5.75375H3.1122L3.36553 7.41842C4.0893 6.04326 5.6454 5.53662 6.94818 5.53662C8.57666 5.53662 10.2051 6.18801 10.9651 8.06981C12.1593 6.15183 13.7516 5.609 15.4887 5.609C19.3246 5.609 21.2426 7.96125 21.2426 12.0505V19.3606H17.8771V12.0144C17.8771 10.2411 17.1533 8.72121 15.3077 8.72121C13.4983 8.72121 12.3765 10.2773 12.3765 12.0867V19.3244H9.04712Z" fill="black"/>
<path d="M34.2706 5.79001H37.4913V19.3245H34.3429L34.162 17.3341C33.402 18.9264 31.2669 19.6864 29.7832 19.7226C25.7663 19.7588 22.7988 17.2618 22.7988 12.5211C22.7988 7.85275 25.911 5.39194 29.8556 5.42813C31.665 5.42813 33.402 6.29665 34.162 7.63562L34.2706 5.79001ZM26.1644 12.5211C26.1644 15.0904 27.9376 16.6466 30.1813 16.6466C35.4648 16.6466 35.4648 8.43177 30.1813 8.43177C27.9376 8.43177 26.1644 9.95169 26.1644 12.5211Z" fill="black"/>
<path d="M42.992 5.79004V12.883C42.992 14.9457 44.1138 16.5018 46.249 16.5018C48.3117 16.5018 49.7231 14.7648 49.7231 12.702V5.79004H53.0524V19.3607H50.0487L49.8316 17.5151C48.4203 18.8903 47.1537 19.5417 45.2357 19.5417C41.9787 19.5417 39.6265 17.0808 39.6265 12.883V5.79004H42.992Z" fill="black"/>
<path d="M60.7244 1.9541V5.79008H64.4518V8.68516H60.6882V14.5477C60.6882 15.8505 61.4119 16.4657 62.4614 16.4657C62.968 16.4657 63.5832 16.2847 64.0899 16.0676L65.0308 18.9265C64.0537 19.3246 63.2575 19.4693 62.2443 19.5055C59.313 19.6141 57.395 17.9494 57.395 14.5477V8.68516H54.8618V5.79008H57.395V2.31599L60.7244 1.9541Z" fill="black"/>
<path d="M70.6037 1.95418C70.6037 4.55975 66.6592 4.55975 66.6592 1.95418C66.6592 -0.651393 70.6037 -0.651393 70.6037 1.95418ZM66.9487 5.71778V19.3246H70.3142V5.71778H66.9487Z" fill="black"/>
<path d="M84.5 17.5876C82.9439 19.1075 81.2793 19.7227 79.2889 19.7227C75.3444 19.7227 72.0874 17.3705 72.0874 12.5574C72.0874 7.74434 75.3444 5.39209 79.2889 5.39209C81.2069 5.39209 82.6906 5.93492 84.1743 7.38246L82.0754 9.58995C81.2793 8.86618 80.3022 8.5043 79.3613 8.5043C77.1176 8.5043 75.4529 10.169 75.4529 12.5212C75.4529 15.0906 77.2262 16.4658 79.2889 16.4658C80.3746 16.4658 81.424 16.1763 82.2564 15.3439L84.5 17.5876Z" fill="black"/>
</svg>
